<svg xmlns="http://www.w3.org/2000/svg" viewBox="0 0 43.5 50.62"><defs><style>.cls-1,.cls-2{fill:none;stroke-miterlimit:10;}.cls-1{stroke:#000;stroke-width:4px;}.cls-2{stroke:#727272;stroke-width:6px;}</style></defs><title>Asset 6</title><g id="Layer_2" data-name="Layer 2"><g id="Layer_1-2" data-name="Layer 1"><path class="cls-1" d="M40.5,10.33A7.33,7.33,0,1,1,33.17,3,7.33,7.33,0,0,1,40.5,10.33Z"/><path class="cls-1" d="M40.5,40.29A7.33,7.33,0,1,1,33.17,33,7.33,7.33,0,0,1,40.5,40.29Z"/><path class="cls-2" d="M40.5,10.33A7.33,7.33,0,1,1,33.17,3,7.33,7.33,0,0,1,40.5,10.33Z"/><path class="cls-2" d="M40.5,40.29A7.33,7.33,0,1,1,33.17,33,7.33,7.33,0,0,1,40.5,40.29Z"/><path class="cls-2" d="M17.66,25.31A7.33,7.33,0,1,1,10.33,18,7.33,7.33,0,0,1,17.66,25.31Z"/><polyline class="cls-2" points="28.74 13.1 18.12 23.72 18.03 26.38 29.17 37.52"/></g></g></svg>