<svg xmlns="http://www.w3.org/2000/svg" viewBox="0 0 1757.78 595.28"><defs><style>.cls-1{fill:#231f20;}</style></defs><title>Asset 5</title><g id="Layer_2" data-name="Layer 2"><g id="Layer_1-2" data-name="Layer 1"><path class="cls-1" d="M579.37,207.56V146H528.83V585.92h50.54V301.45a122.53,122.53,0,0,1,16-61l1-1.65a99.73,99.73,0,0,1,60.81-46.14c32.54-8.38,67.22-6.26,100.06,5.08V156.93a13.33,13.33,0,0,0-10.87-13.12c-19.91-3.69-55.68-6.67-95.13,9.13a171.54,171.54,0,0,0-71.84,54.62"/><path class="cls-1" d="M1518.64,146c-132.08,0-239.15,100.57-239.15,224.63s107.07,224.64,239.15,224.64,239.14-100.57,239.14-224.64S1650.71,146,1518.64,146m1.4,425.87c-97.7,0-176.9-90.3-176.9-201.71s79.2-201.7,176.9-201.7,176.9,90.3,176.9,201.7-79.2,201.71-176.9,201.71"/><path class="cls-1" d="M1236.44,370.64a212.92,212.92,0,0,0-13.61-74.88C1190,208.52,1101.42,146,997.29,146S804.58,208.52,771.76,295.76a212.32,212.32,0,0,0-13.61,74.88c0,4.08.11,8.15.34,12.17a211.93,211.93,0,0,0,10,53.35c29.85,92.1,121,159.12,228.81,159.12s199-67,228.81-159.12h-60.19c-24,79-89.78,135.72-167.21,135.72S855.45,515.16,831.48,436.16a225.4,225.4,0,0,1-9.35-53.35h414c.23-4,.35-8.09.35-12.17M824.91,332.27a223.15,223.15,0,0,1,9.31-36.51c26-74.57,89.82-127.29,164.48-127.29s138.49,52.72,164.47,127.29a223.15,223.15,0,0,1,9.31,36.51Z"/><path class="cls-1" d="M468,436.16c-29.84,92.1-121,159.12-228.81,159.12s-199-67-228.81-159.12a212.87,212.87,0,0,1,3.28-140.4C46.43,208.52,135,146,239.14,146s192.71,62.51,225.54,149.75H405c-26-74.57-89.82-127.29-164.47-127.29S102.05,221.19,76.08,295.76a229.33,229.33,0,0,0-2.75,140.4c24,79,89.78,135.72,167.22,135.72s143.24-56.72,167.21-135.72Z"/><polygon class="cls-1" points="946.28 99.21 957.51 110.44 1100.72 29.94 1075.43 0 946.28 99.21"/></g></g></svg>