<svg xmlns="http://www.w3.org/2000/svg" viewBox="0 0 478.29 595.28"><defs><style>.cls-1{fill:#231f20;}</style></defs><title>Asset 3</title><g id="Layer_2" data-name="Layer 2"><g id="Layer_1-2" data-name="Layer 1"><path class="cls-1" d="M478.29,370.64a212.32,212.32,0,0,0-13.61-74.88C431.85,208.52,343.27,146,239.14,146S46.43,208.52,13.61,295.76A212.32,212.32,0,0,0,0,370.64c0,4.08.11,8.15.35,12.17a211.92,211.92,0,0,0,10,53.35c29.85,92.1,121,159.12,228.81,159.12s199-67,228.82-159.12h-60.2c-24,79-89.78,135.72-167.21,135.72S97.3,515.16,73.34,436.16A225.41,225.41,0,0,1,64,382.81h414c.24-4,.35-8.09.35-12.17M66.76,332.27a223.17,223.17,0,0,1,9.32-36.51c26-74.57,89.81-127.29,164.47-127.29S379.05,221.19,405,295.76a222.14,222.14,0,0,1,9.31,36.51Z"/><polygon class="cls-1" points="188.13 99.21 199.37 110.44 342.57 29.94 317.28 0 188.13 99.21"/></g></g></svg>