<svg id="Layer_1" data-name="Layer 1" xmlns="http://www.w3.org/2000/svg" viewBox="0 0 422.98 500"><defs><style>.cls-1{fill:#231f20;}</style></defs><title>_e</title><path class="cls-1" d="M406.15,313.15a173.12,173.12,0,0,0-11.08-60.95c-26.72-71-98.82-121.9-183.58-121.9S54.63,181.19,27.91,252.2a172.52,172.52,0,0,0-11.08,60.95c0,3.32.09,6.63.28,9.9a172.54,172.54,0,0,0,8.13,43.43C49.54,441.45,123.73,496,211.49,496s162-54.55,186.25-129.52h-49C329.23,430.78,275.66,477,212.63,477S96,430.78,76.52,366.48a183.62,183.62,0,0,1-7.61-43.43h337c.2-3.27.29-6.58.29-9.9m-335-31.24a182.37,182.37,0,0,1,7.58-29.71c21.15-60.7,73.11-103.62,133.88-103.62S325.37,191.5,346.51,252.2a182.37,182.37,0,0,1,7.58,29.71Z"/><polygon class="cls-1" points="169.97 92.21 179.11 101.35 295.68 35.83 275.09 11.46 169.97 92.21"/></svg>